<svg width="18" height="21" viewBox="0 0 18 21" fill="none" xmlns="http://www.w3.org/2000/svg">
<path fill-rule="evenodd" clip-rule="evenodd" d="M12.5492 8.68031C12.5492 9.64771 12.1508 10.5755 11.4415 11.2595C10.7322 11.9436 9.77019 12.3279 8.76711 12.3279C7.76403 12.3279 6.80203 11.9436 6.09274 11.2595C5.38346 10.5755 4.98499 9.64771 4.98499 8.68031C4.98499 7.7129 5.38346 6.78513 6.09274 6.10107C6.80203 5.41701 7.76403 5.03271 8.76711 5.03271C9.77019 5.03271 10.7322 5.41701 11.4415 6.10107C12.1508 6.78513 12.5492 7.7129 12.5492 8.68031ZM10.6582 8.68031C10.6582 9.16401 10.4589 9.6279 10.1043 9.96992C9.74965 10.312 9.26865 10.5041 8.76711 10.5041C8.26557 10.5041 7.78457 10.312 7.42993 9.96992C7.07528 9.6279 6.87605 9.16401 6.87605 8.68031C6.87605 8.19661 7.07528 7.73272 7.42993 7.39069C7.78457 7.04866 8.26557 6.85651 8.76711 6.85651C9.26865 6.85651 9.74965 7.04866 10.1043 7.39069C10.4589 7.73272 10.6582 8.19661 10.6582 8.68031Z" fill="black"/>
<path fill-rule="evenodd" clip-rule="evenodd" d="M2.64182 14.3758C1.42288 13.2565 0.575459 11.8137 0.206731 10.2299C-0.161998 8.64616 -0.0354776 6.99249 0.570293 5.47806C1.17606 3.96363 2.23388 2.65645 3.60996 1.72183C4.98605 0.787203 6.61861 0.267111 8.30119 0.227321C9.98376 0.18753 11.6408 0.629829 13.0627 1.49828C14.4846 2.36674 15.6076 3.62235 16.2896 5.10632C16.9716 6.5903 17.182 8.236 16.8942 9.8353C16.6064 11.4346 15.8334 12.9157 14.6728 14.0913L8.8048 20.035L2.64182 14.3758ZM13.3036 12.8338L8.73955 17.4571L3.94571 13.0553C2.99769 12.1848 2.33862 11.0626 2.05185 9.83085C1.76508 8.59905 1.86349 7.3129 2.33463 6.13503C2.80577 4.95717 3.62848 3.94049 4.69873 3.21356C5.76898 2.48663 7.0387 2.08209 8.34734 2.05111C9.65598 2.02012 10.9448 2.36407 12.0507 3.03947C13.1567 3.71487 14.0301 4.69138 14.5606 5.84553C15.0911 6.99967 15.2549 8.27962 15.0311 9.52351C14.8074 10.7674 14.2062 11.9194 13.3036 12.8338Z" fill="#333333"/>
</svg>
