<svg width="45" height="56" viewBox="0 0 45 56" fill="none" xmlns="http://www.w3.org/2000/svg">
<path d="M43.5683 19.2568C41.761 20.3666 40.2639 21.9183 39.2171 23.7667C38.1703 25.6151 37.6082 27.6999 37.5832 29.8257C37.5904 32.2182 38.2968 34.556 39.6152 36.5496C40.9335 38.5432 42.8057 40.105 45 41.0416C44.1349 43.8422 42.8546 46.4961 41.202 48.9142C38.8374 52.3293 36.3651 55.7443 32.6031 55.7443C28.8411 55.7443 27.8736 53.5515 23.5382 53.5515C19.3099 53.5515 17.8056 55.8163 14.3669 55.8163C10.9283 55.8163 8.52744 52.6528 5.76864 48.7705C2.12407 43.3317 0.121072 36.9534 0 30.4008C0 19.6156 6.9868 13.9004 13.8658 13.9004C17.5206 13.9004 20.5656 16.309 22.8584 16.309C25.044 16.309 28.4477 13.7567 32.604 13.7567C34.7409 13.7012 36.8587 14.1739 38.7707 15.133C40.6828 16.0921 42.3303 17.5083 43.5683 19.2568ZM23.1457 13.1455C22.8932 13.1447 22.6414 13.1207 22.3932 13.0738C22.3232 12.7427 22.2872 12.4054 22.2858 12.0669C22.4053 9.28475 23.4815 6.62995 25.3313 4.5538C27.4075 2.16107 30.3176 0.656196 33.4645 0.3479C33.5393 0.71453 33.5753 1.08805 33.572 1.46226C33.5037 4.3001 32.4665 7.02841 30.6339 9.19111C29.7181 10.3251 28.582 11.2603 27.2947 11.9401C26.0074 12.6199 24.5958 13.03 23.1457 13.1455Z" fill="black"/>
</svg>
