<svg width="30" height="35" viewBox="0 0 30 35" fill="none" xmlns="http://www.w3.org/2000/svg">
<path d="M29.0456 11.9313C27.8407 12.6316 26.8426 13.6107 26.1447 14.777C25.4469 15.9434 25.0721 17.2588 25.0555 18.6002C25.0602 20.1098 25.5312 21.5849 26.4101 22.8429C27.289 24.1008 28.5372 25.0863 30 25.6773C29.4233 27.4444 28.5697 29.119 27.468 30.6448C25.8916 32.7997 24.2434 34.9546 21.7354 34.9546C19.2274 34.9546 18.5824 33.5709 15.6921 33.5709C12.8733 33.5709 11.8704 35 9.57796 35C7.28556 35 5.68496 33.0038 3.84576 30.5541C1.41605 27.1223 0.0807149 23.0977 0 18.963C0 12.1577 4.65787 8.5515 9.24387 8.5515C11.6804 8.5515 13.7104 10.0713 15.2389 10.0713C16.696 10.0713 18.9652 8.46082 21.736 8.46082C23.1606 8.4258 24.5725 8.72403 25.8472 9.32924C27.1218 9.93444 28.2202 10.8281 29.0456 11.9313ZM15.4305 8.07512C15.2622 8.07464 15.0942 8.0595 14.9288 8.02988C14.8821 7.821 14.8581 7.60813 14.8572 7.39459C14.9369 5.63906 15.6543 3.96391 16.8875 2.65388C18.2717 1.14409 20.2117 0.194531 22.3097 0C22.3595 0.23134 22.3835 0.467028 22.3813 0.703152C22.3358 2.4938 21.6443 4.21533 20.4226 5.57997C19.812 6.29548 19.0547 6.88563 18.1965 7.31456C17.3383 7.74349 16.3972 8.00226 15.4305 8.07512Z" fill="black"/>
</svg>
