<svg width="22" height="21" viewBox="0 0 22 21" fill="none" xmlns="http://www.w3.org/2000/svg">
<path d="M20.107 4.09847L17.3081 1.46405C16.9665 1.14217 16.5092 0.961426 16.0256 0.961426C15.5421 0.961426 15.0848 1.13969 14.7432 1.46405L11.7288 4.29902C11.3872 4.6209 11.1954 5.05419 11.1954 5.50977C11.1954 5.96782 11.3846 6.39616 11.7288 6.72051L14.0835 8.94145C13.5471 10.119 12.7764 11.1889 11.8129 12.0933C10.8485 13.007 9.72103 13.7275 8.4701 14.2375L6.11539 12.0166C5.77375 11.6947 5.31648 11.514 4.83292 11.514C4.59441 11.5131 4.35812 11.5572 4.13791 11.6435C3.91769 11.7298 3.71797 11.8566 3.55045 12.0166L0.533487 14.8516C0.191845 15.1734 0 15.6067 0 16.0623C0 16.5204 0.189217 16.9487 0.533487 17.2731L3.3297 19.9075C3.91312 20.4571 4.71729 20.7716 5.54249 20.7716C5.71331 20.7716 5.87887 20.7592 6.04707 20.732C9.52656 20.1922 12.9798 18.4467 15.7681 15.8221C18.5538 13.1927 20.4039 9.93926 20.9821 6.65861C21.1476 5.72765 20.8165 4.76945 20.107 4.09847ZM19.1188 6.36397C18.6064 9.28313 16.9402 12.1949 14.4304 14.5594C11.9207 16.9239 8.83276 18.4937 5.73433 18.9765C5.34539 19.0384 4.94593 18.9146 4.6621 18.6497L1.91582 16.0623L4.82767 13.3165L7.97603 16.2876L7.99968 16.3099L8.56733 16.1118C10.2885 15.5156 11.8515 14.574 13.1479 13.3521C14.4444 12.1302 15.4434 10.6573 16.0756 9.03553L16.2858 8.50073L13.1112 5.51224L16.023 2.7664L18.7693 5.35378C19.0531 5.62118 19.1845 5.99753 19.1188 6.36397Z" fill="black"/>
</svg>
